<!-- Plot 1 -->
<svg class="js-plot-selector" data-property-id="469" width="444" height="608" viewBox="0 0 444 608">
  <path x="0" y="0" width="444" height="608" fill="grey" d="M 286.26184,606.59596 C 234.92851,606.11388 149.5196,605.63259 96.464253,605.52642 L 0,605.33336 0.81177,597.6667 c 0.44647,-4.21667 1.40737,-16.66667 2.13532,-27.66667 0.72796,-11 1.9196,-29 2.64808,-40 1.34132,-20.25373 3.05503,-45.25621 5.34627,-78 0.69275,-9.9 2.47292,-35.7 3.95593,-57.33333 3.04763,-44.45707 4.88421,-71.14658 6.6978,-97.33334 0.68563,-9.9 1.85974,-27.3 2.60912,-38.66666 0.74939,-11.36667 1.6798,-23.96667 2.06759,-28 0.3878,-4.03334 1.90977,-25.63334 3.38216,-48 1.4724,-22.36667 3.28161,-49.36667 4.02046,-60 0.73886,-10.63334 1.90643,-27.43333 2.59461,-37.33333 0.68818,-9.9 1.91878,-27.900005 2.73467,-40.000005 0.81589,-12.1 1.88273,-26.5 2.37075,-32 L 42.26184,3.333366 81.595169,2.520902 c 21.633341,-0.446855 63.419321,-0.896855 92.857761,-1 l 53.52443,-0.187536 0.15409,16.999999 c 0.0848,9.35 0.73656,38.9 1.44846,65.666665 0.7119,26.76667 1.91821,74.46667 2.68069,106 0.76248,31.53333 1.959,79.53333 2.65892,106.66667 0.69992,27.13333 1.9406,77.53333 2.75707,112 3.21842,135.86464 3.09276,132.65557 5.25192,134.12721 1.18806,0.80977 6.33032,1.06803 12.66666,0.63616 5.86667,-0.39987 50.56667,-0.75256 99.33334,-0.78379 l 88.66666,-0.0568 0.4123,23.03859 c 0.22677,12.67123 0.0256,27.3886 -0.4471,32.70527 L 442.70099,608 411.14808,607.73622 c -17.35409,-0.14507 -73.55291,-0.65819 -124.88624,-1.14026 z"></path>
	<text style="text-transform: uppercase; fill: #fff;" x="-300" y="140" transform="rotate(-90)" font-size="50" text-anchor="middle" alignment-baseline="middle">
    Click to view
	</text>
</svg>

<!-- Plot 2 -->
<svg class="js-plot-selector" data-property-id="473" width="217.33333" height="545.33331" viewBox="0 0 217.33333 545.33331">
  <path  x="0" y="0" width="217.33333" height="545.33331" fill="grey" d="m 13.84143,534.66665 c -0.40352,-5.86667 -1.06056,-26.56667 -1.46009,-46 C 11.9818,469.23332 11.06346,429.93332 10.34057,401.33332 7.03878,270.70282 4.9389,185.65984 3.09759,108 2.0022,61.800007 0.85712,19.426167 0.55298,13.835917 L 0,3.6718251 66.19565,2.8424528 C 102.60326,2.3862982 144.9913,1.8601397 160.3913,1.6732117 l 28,-0.3398691 V 94.666672 188 l 9.94043,0.39726 c 5.46723,0.21851 10.62325,0.96398 11.45783,1.65662 1.07081,0.88869 1.77877,19.60793 2.40542,63.60273 2.66578,187.15232 3.53602,243.31881 4.10903,265.20409 l 0.63347,24.19405 -21.60642,0.80628 c -11.88353,0.44344 -57.41508,0.95612 -101.18119,1.13928 l -79.57477,0.333 z"></path>
  <text style="text-transform: uppercase;fill: #fff;" transform="rotate(-92)" x="-300" y="108" font-size="50" text-anchor="middle" alignment-baseline="middle">
    Click to view
  </text>
</svg>

<!-- Plot 3 -->
<svg class="js-plot-selector" data-property-id="440" width="161.33333" height="552" viewBox="0 0 161.33333 552">
  <path x="0" y="0" width="161.33333" height="552" fill="grey" d="m 30.262819,494.34674 c -0.23454,-0.73333 -1.06469,-43.93333 -1.84479,-96 -0.78009,-52.06666 -1.79429,-119.86666 -2.25378,-150.66666 -0.49935,-33.47215 -1.36467,-56.67047 -2.15103,-57.66667 -0.86725,-1.09868 -5.16557,-1.66667 -12.61272,-1.66667 H 0.10336944 l 0.78602,-19.66666 C 1.3216994,157.86341 2.0505794,116.15451 2.5091094,75.993618 2.9676494,35.832737 3.7492594,2.7226374 4.2460194,2.4156204 4.7427894,2.1086024 33.154439,1.4252314 67.383029,0.89701737 l 62.233801,-0.96039 0.0551,88.48980063 c 0.0303,48.669392 0.49839,88.933132 1.04024,89.474972 0.54184,0.54185 7.45371,1.40337 15.35971,1.9145 7.90599,0.51114 14.596,1.28968 14.86667,1.7301 0.27068,0.44041 -0.0183,23.00074 -0.64224,50.13408 -0.62391,27.13333 -1.78244,96.43333 -2.57451,154 -0.79208,57.56666 -1.7543,106.09556 -2.13828,107.84197 l -0.69814,3.17531 -62.098041,-0.50864 c -39.77371,-0.32579 -62.25134,-0.98798 -62.52448,-1.84198 z"></path>
  <text style="text-transform: uppercase; fill: #fff;" transform="rotate(-92)" x="-260" y="80" font-size="50" text-anchor="middle" alignment-baseline="middle">
    Click to view
    </text>
</svg>

<!-- Plot 4 -->
<svg class="js-plot-selector" data-property-id="445" width="148"
   height="498.66666"
   viewBox="0 0 148 498.66666">
  <path x="0" y="0" width="148" height="498.66666" fill="grey" d="m 79.385417,498.31508 -52.549216,-0.39379 0.84766,-50.31765 c 2.80853,-166.71684 3.81965,-263.28095 2.76771,-264.32349 -0.65098,-0.64518 -7.54066,-1.35779 -15.3104,-1.5836 L 1.0143711,181.28597 0.27239109,92.619313 c -0.40809,-48.766666 -0.35103,-89.060292 0.1268,-89.5413911 C 0.87702109,2.5968228 28.567971,1.9968228 61.934641,1.7445886 l 60.666659,-0.4586077 0.66667,89.3333321 0.66667,89.333327 10.93405,0.71183 c 6.01372,0.3915 11.1818,0.9915 11.48463,1.33333 0.30281,0.34183 0.0724,14.12151 -0.51202,30.62151 -0.58442,16.5 -1.76158,69.9 -2.6159,118.66666 -0.85432,48.76667 -1.94424,106.36667 -2.42204,128 l -0.86872,39.33333 -4,0.0448 c -2.2,0.0247 -27.64715,-0.1324 -56.549223,-0.349 z"></path>
  <text style="text-transform: uppercase; fill: #fff;" transform="rotate(-92)" x="-260" y="80" font-size="50" text-anchor="middle" alignment-baseline="middle">
    Click to view
	</text>
</svg>

<!-- Plot 5 -->
<svg class="js-plot-selector" data-property-id="446" width="150.66667"
   height="500"
   viewBox="0 0 150.66667 500">
  <path x="0" y="0" width="150.66667" height="500" fill="grey" d="m 32.856565,499.00505 -14.33333,-0.4286 0.0111,-12.95489 c 0.006,-7.12519 0.57824,-38.45489 1.27145,-69.62156 3.10702,-139.69184 4.39914,-232.18453 3.25941,-233.3166 -0.66473,-0.66027 -5.78876,-1.31989 -11.38672,-1.46583 L 1.5003645,180.95225 0.58322453,116.80946 c -0.50442,-35.278533 -0.72427,-75.542789 -0.48855,-89.476123 L 0.52326453,2.000004 59.523265,1.652802 118.52326,1.305599 l 0.14118,77.680536 c 0.0777,42.724295 0.52765,83.080535 1,89.680535 l 0.85882,12 15,0.377 15,0.377 7.6e-4,14.95633 c 4.1e-4,8.22599 -0.58488,53.05633 -1.30067,99.623 -0.71577,46.56667 -1.68692,111.51667 -2.15812,144.33333 L 146.20851,500 96.699225,499.71683 c -27.23011,-0.15575 -55.9593,-0.47606 -63.84263,-0.71178 z"></path>
  <text style="text-transform: uppercase; fill: #fff;" transform="rotate(-92)" x="-260" y="76" font-size="50" text-anchor="middle" alignment-baseline="middle">
    Click to view
	</text>
</svg>

<!-- Plot 6 -->
<svg class="js-plot-selector" data-property-id="447" width="145.33333"
   height="501.33334"
   viewBox="0 0 145.33333 501.33334">
  <path x="0" y="0" width="145.33333" height="501.33334" fill="grey" d="M 71.627451,500.5853 27.92154,500.21484 28.681,449.89978 c 0.41771,-27.6733 1.33537,-87.9809 2.03925,-134.0169 0.70388,-46.036 1.27978,-95.086 1.27978,-109 V 181.58471 H 16.88299 1.76595 l -0.88099,-49 C 0.40042,105.6347 0.00309,65.2309 0.002,42.798474 L 0,2.0122485 34.21629,1.1318085 C 53.035245,0.64756549 78.535245,0.25136749 90.882954,0.25136749 H 113.33333 V 90.83935 c 0,60.00933 0.45808,90.87109 1.35705,91.42668 0.74638,0.46129 8.03599,0.85084 16.19914,0.86565 l 14.84208,0.0269 -0.85895,35.54638 c -0.47243,19.55052 -1.50396,90.44638 -2.29229,157.54639 -0.78835,67.1 -1.67259,122.75 -1.965,123.66666 -0.3848,1.20626 -3.95028,1.5798 -12.90685,1.35219 -6.80635,-0.17296 -32.042836,-0.48117 -56.081089,-0.68493 z"></path>
  <text style="text-transform: uppercase; fill: #fff;" transform="rotate(-92)" x="-260" y="76" font-size="50" text-anchor="middle" alignment-baseline="middle">
    Click to view
	</text>
</svg>

<!-- Plot 7 -->
<svg class="js-plot-selector" data-property-id="448" width="164"
   height="504"
   viewBox="0 0 164 504">
  <path x="0" y="0" width="164" height="504" fill="grey" d="m 88.17157,502.70759 c -32.53897,-0.58197 -59.48655,-1.3829 -59.8835,-1.77986 -0.39695,-0.39695 -0.0115,-53.97416 0.85667,-119.06046 0.86812,-65.08629 1.7157,-136.03872 1.8835,-157.67205 L 31.33334,184.86189 15.66667,184.48623 0,184.11059 V 92.819571 1.5285564 l 49,-0.0054 c 26.95,-0.003 56.65,-0.395567 66,-0.87243002 l 17,-0.867023 0.17595,57.20576762 c 0.0968,31.46317 0.54678,73.405759 1,93.205759 l 0.82405,36 15.20647,0.37893 15.20645,0.37894 -0.88975,52.9544 c -0.48936,29.12492 -1.5001,99.7544 -2.24609,156.9544 -0.746,57.2 -1.61969,104.75 -1.94153,105.66666 -0.3623,1.03186 -2.7595,1.58487 -6.29371,1.45192 -3.13968,-0.11813 -32.3313,-0.6909 -64.87027,-1.27288 z"></path>
  <text style="text-transform: uppercase; fill: #fff;" transform="rotate(-92)" x="-260" y="76" font-size="50" text-anchor="middle" alignment-baseline="middle">
    Click to view
	</text>
</svg>

<!-- Plot 8 -->
<svg class="js-plot-selector" data-property-id="474" width="238.66667"
   height="612"
   viewBox="0 0 238.66667 612">
  <path x="0" y="0" width="238.66667" height="612" fill="grey" d="m 112.44584,505.51362 c -43.266657,-0.62184 -80.111027,-1.45818 -81.876357,-1.85856 l -3.20969,-0.72796 0.91234,-62.92196 c 2.9838,-205.78773 3.43229,-250.8634 2.5052,-251.79048 -0.56716,-0.56717 -7.32377,-1.20377 -15.01468,-1.41468 L 1.7791726,186.4165 0.95759262,149.74984 c -1.1975,-53.443482 -1.29636,-145.7524418 -0.158,-147.5273718 C 1.5144826,1.1078182 25.738023,0.56865815 90.445843,0.22713815 c 87.793177,-0.46335 88.669867,-0.44174 88.992047,2.19403005 1.94866,15.9425698 5.2334,122.3306318 4.68741,151.8186318 -0.54445,29.40502 -0.33627,36.03046 1.16196,36.97958 1.00389,0.63596 11.81499,1.16548 24.02467,1.17671 l 22.19941,0.0204 0.19685,157.33333 0.19686,157.33334 -20.39627,-0.21947 c -11.21795,-0.12069 -55.79627,-0.72823 -99.06294,-1.35007 z"></path>
  <text style="text-transform: uppercase; fill: #fff;" transform="rotate(-92)" x="-260" y="116" font-size="50" text-anchor="middle" alignment-baseline="middle">
    Click to view
	</text>
</svg>

<!-- Plot 9 -->
<svg class="js-plot-selector" data-property-id="478" width="317.33334" height="513.33331" viewBox="0 0 317.33334 513.33331">
  <path x="0" y="0" width="317.33334" height="513.33331" fill="grey" d="m 96.724196,512.58259 c -22.366667,-0.59234 -41.416667,-1.34738 -42.333334,-1.67788 -1.315728,-0.47436 -1.666667,-24.70845 -1.666667,-115.09195 0,-62.97009 -0.396904,-133.48892 -0.882008,-156.7085 l -0.882009,-42.21744 -21.451324,-0.0204 C 17.710624,196.85522 7.257169,196.33865 6.278954,195.71855 4.83854,194.80547 4.576903,185.61977 4.902856,147.40564 5.259759,105.56315 3.796453,57.935937 0.926621,17.988427 L 0,5.0900265 12.028764,4.3431665 c 6.61582,-0.41077 77.128766,-1.11737 156.695436,-1.57022 79.56667,-0.45285 145.26667,-0.91248 146,-1.02141 0.73333,-0.10892 1.19373,1.30196 1.02309,3.13529 -0.2649,2.8464 -39.29126,256.7784335 -45.08186,293.3333235 -2.33379,14.73269 -4.07467,25.86733 -5.94123,38 -5.63809,36.64757 -7.96716,50.6606 -12.74255,76.66666 -4.21664,22.96316 -5.03445,25.68871 -11.84176,39.46579 -11.45432,23.18201 -25.05773,39.24469 -40.16984,47.43191 -7.97399,4.32003 -23.32003,8.46412 -41.24585,11.13818 -19.27452,2.87524 -17.70047,2.83309 -62.000004,1.6599 z"></path>
  <text style="text-transform: uppercase; fill: #fff;" transform="rotate(-90)" x="-260" y="156" font-size="50" text-anchor="middle" alignment-baseline="middle">
    Click to view
	</text>
</svg>

<!-- Plot 10 -->
<svg class="js-plot-selector" data-property-id="270"  
	width="541.33331"
  height="137.33333"
  viewBox="0 0 541.33331 137.33333">
  <path x="0" y="0" width="541.33331" height="137.33333" fill="grey" d="m 396.31242,135.78276 c -63.43333,-0.61 -178.55362,-1.56067 -255.82287,-2.1126 L 0,132.66666 0.2293106,66.704678 C 0.3554314,30.425588 0.5757302,0.64829825 0.7188634,0.53291825 0.8619966,0.41753825 21.079105,1.1118282 45.645771,2.0757782 c 97.598139,3.8296 126.839599,4.63141 215.333319,5.9045 134.41483,1.93372 218.80863,3.9693598 228.66666,5.5155998 28.18214,4.42039 48.94362,27.30373 49.57425,54.64084 0.17064,7.39679 -2.53278,53.411432 -3.73246,63.529942 l -0.67186,5.66667 -11.58496,-0.22073 c -6.37174,-0.1214 -63.48497,-0.71983 -126.9183,-1.32984 z"></path>
  <text style="text-transform: uppercase; fill: #fff;" x="260" y="72" font-size="50" text-anchor="middle" alignment-baseline="middle">
    Click to view
	</text>
</svg>

<!-- Plot 11 -->
<svg class="js-plot-selector" data-property-id="271"  
	 width="537.33331"
   height="114.66667"
   viewBox="0 0 537.33331 114.66667">
  <path x="0" y="0" width="537.33331" height="114.66667" fill="grey" d="M 326.05176,112.6109 C 251.98509,111.69596 148.32344,110.5117 95.692545,109.97922 L 0,109.01107 0.08185379,55.216292 C 0.12687336,25.629172 0.58852052,1.1952018 1.1077363,0.91858175 c 0.5192159,-0.27663 36.6440267,-0.0526 80.2773587,0.49781005 43.633335,0.55042 163.633335,1.43288 266.666655,1.96102 103.03333,0.52814 187.65177,1.13838 188.04098,1.3561 0.38922,0.21771 0.0213,9.2917402 -0.81744,20.1645002 -0.8388,10.87276 -2.23428,32.96865 -3.10108,49.10199 -0.8668,16.13333 -1.88572,31.883338 -2.26426,34.999998 l -0.68827,5.66667 -34.25162,-0.19612 c -18.8384,-0.10786 -94.85164,-0.94471 -168.9183,-1.85965 z"></path>
  <text style="text-transform: uppercase; fill: #fff;" x="260" y="62" font-size="50" text-anchor="middle" alignment-baseline="middle">
    Click to view
	</text>
</svg>

<!-- Plot 12 -->
<svg class="js-plot-selector" data-property-id="272"  
	 width="530.66669"
   height="124"
   viewBox="0 0 530.66669 124">
  <path x="0" y="0" width="530.66669" height="124" fill="grey" d="M 1.089485,123.62629 C 0.643593,123.1804 0.216048,95.572099 0.139386,62.274519 L 0,1.7334691 h 17.213172 c 9.467245,0 60.9365,0.57892 114.376118,1.28649 53.43961,0.70757 164.66294,1.97655 247.16294,2.81996 82.50001,0.8434 150.25316,1.76762 150.56256,2.05383 0.30941,0.28621 -0.12827,11.1672299 -0.97275,24.1800499 -0.84443,13.01281 -2.24375,36.85967 -3.1096,52.993 -0.86585,16.133331 -2.13779,29.705621 -2.82652,30.160641 -0.68872,0.45502 -28.94256,1.22087 -62.7863,1.70189 -33.84373,0.48102 -99.93405,1.44994 -146.86739,2.15315 -46.93333,0.70322 -126.43334,1.88562 -176.66667,2.62757 -50.233338,0.74194 -100.975046,1.65903 -112.759352,2.03797 -11.784306,0.37894 -21.790831,0.32416 -22.236723,-0.12173 z"></path>
  <text style="text-transform: uppercase; fill: #fff;" x="260" y="68" font-size="50" text-anchor="middle" alignment-baseline="middle">
    Click to view
	</text>
</svg>

<!-- Plot 13 -->
<svg class="js-plot-selector" data-property-id="273"  
	 width="538.66669"
   height="136"
   viewBox="0 0 538.66669 136">
  <path x="0" y="0" width="538.66669" height="136" fill="grey" d="m 0,129.50609 v -6.4939 l 6.0000003,0.4772 c 3.3000003,0.26246 6.0393077,0.26678 6.0873497,0.01 0.04804,-0.25718 0.560044,-25.8296 1.137782,-56.8276 C 13.80287,35.67339 14.592074,9.99488 14.978918,9.60804 15.712194,8.87476 91.900199,7.46182 259.33335,5.07636 344.25507,3.86646 520.57487,0.91542 532.66669,0.50162 c 3.99626,-0.13676 3.99984,-0.13002 3.82548,7.19645 -0.096,4.03333 -0.62662,30.13333 -1.1792,58 -0.55256,27.86666 -1.49357,51.62032 -2.09113,52.78589 -0.93272,1.81934 -6.04865,2.24687 -36.15414,3.02133 -19.28722,0.49616 -55.46768,1.48064 -80.40101,2.18773 -24.93334,0.70708 -67.83334,1.90889 -95.33334,2.67068 -27.5,0.76178 -80.9,2.27341 -118.66667,3.35916 -37.76667,1.08576 -89.96667,2.55798 -116.000009,3.27161 -26.033335,0.71364 -56.183336,1.68181 -67.000003,2.15152 L 0,136 Z"></path>
  <text style="text-transform: uppercase; fill: #fff;" x="260" y="72" font-size="50" text-anchor="middle" alignment-baseline="middle">
    Click to view
	</text>
</svg>

<!-- Plot 14 -->
<svg class="js-plot-selector" data-property-id="453"  
	 width="536"
   height="160"
   viewBox="0 0 536 160">
  <path x="0" y="0" width="536" height="160" fill="grey" d="m 0.22596372,159.44187 c -0.322336,-0.58309 -0.296702,-32.94891 0.05697,-71.924042 l 0.643031,-70.86388 22.82716728,-0.81218 c 21.753964,-0.77399 53.715295,-1.69601 166.160508,-4.7934 27.5,-0.7575 70.7,-1.9584302 96,-2.6687302 25.3,-0.7103 68.8,-1.91935 96.66666,-2.68677 27.86667,-0.76743 68.17699,-1.97639 89.57848,-2.68658 21.4015,-0.71019 44.2015,-1.29181 50.66667,-1.2925 l 11.75485,-10e-4 -0.95381,34.3345802 c -2.19496,79.012362 -3.378,111.110862 -4.12264,111.855482 -0.80577,0.80579 -42.77232,1.87307 -174.25688,4.43168 -242.56888,4.72023 -331.671379,6.65044 -343.550803,7.44226 -5.9862743,0.39901 -11.14786328,0.24841 -11.47019928,-0.33467 z"></path>
  <text style="text-transform: uppercase; fill: #fff;" x="260" y="87" font-size="50" text-anchor="middle" alignment-baseline="middle">
    Click to view
	</text>
</svg>

<!-- Plot 15 -->
<svg class="js-plot-selector" data-property-id="266"  
	 width="208"
   height="513.33331"
   viewBox="0 0 208 513.33331">
  <path x="0" y="0" width="208" height="513.33331" fill="grey" d="m 60.484741,508.60288 c -0.407221,-2.60172 -2.504194,-19.43041 -4.659938,-37.39707 -2.155744,-17.96667 -6.087563,-50.66667 -8.737374,-72.66667 -2.64981,-22 -6.585302,-54.7 -8.745538,-72.66666 -2.160236,-17.96667 -5.742542,-47.66667 -7.960682,-66 -2.21814,-18.33333 -4.93725,-40.83333 -6.04248,-50 -1.10522,-9.16666 -2.87762,-23.86666 -3.93866,-32.66666 -1.06105,-8.8 -3.76025,-31.3 -5.99824,-50 C 9.4862294,86.132413 6.0837494,58.012893 2.4024994,28.038303 0.88262943,15.662833 -0.18628057,5.384679 0.02713943,5.197958 0.24055943,5.011236 31.315179,4.095712 69.081843,3.16346 106.84851,2.231208 139.81587,1.409365 142.34265,1.337142 l 4.59414,-0.131314 2.99196,27.333335 c 8.67384,79.240527 16.05944,123.788017 33.82147,203.999987 18.99203,85.76657 24.37193,120.98871 21.40291,140.1245 -3.97267,25.60449 -14.24067,60.47362 -23.32482,79.20882 -8.09465,16.69448 -14.81176,23.91547 -28.06192,30.16701 -9.33824,4.40586 -51.56596,18.86968 -82.279562,28.18238 l -10.261683,3.11145 z"></path>
  <text style="text-transform: uppercase; fill: #fff;" transform="rotate(-98)" x="-250" y="70" font-size="50" text-anchor="middle" alignment-baseline="middle">
    Click to view
	</text>
</svg>

<!-- Plot 16 -->
<svg class="js-plot-selector" data-property-id="267"  
	width="190.66667"
  height="534.66669"
  viewBox="0 0 190.66667 534.66669">
  <path x="0" y="0" width="190.66667" height="534.66669" fill="grey" d="m 64.609233,533.30988 c -0.315686,-1.13413 -0.921875,-5.06207 -1.347087,-8.72873 -0.876808,-7.56086 -9.515669,-78.54581 -15.455889,-127.00001 -2.180141,-17.78333 -5.783781,-47.18333 -8.008101,-65.33334 -2.22432,-18.15 -6.14228,-50.1 -8.7066,-71 -2.56431,-20.9 -5.82971,-47.6 -7.25644,-59.33333 -1.42673,-11.73334 -5.61723,-45.93334 -9.31222,-76.00001 C 10.827896,95.847794 6.5889855,61.047793 5.1030855,48.581125 3.6171855,36.114458 1.7768355,21.513278 1.0134255,16.134057 0.25000551,10.754837 -0.17505449,6.1541035 0.06884551,5.9102044 0.31273551,5.6663052 19.711556,5.0770436 43.177336,4.600734 66.643101,4.1244244 95.120107,3.2028966 106.45956,2.5528944 c 11.33946,-0.6500021 20.72172,-1.0595607 20.84946,-0.91013 0.23921,0.2798223 2.46744,18.0689466 7.21548,57.6050286 1.49716,12.466667 3.59243,29.866668 4.65613,38.666668 1.06372,8.799999 4.0615,33.699999 6.66174,55.333339 2.60024,21.63333 5.59464,46.53333 6.65422,55.33333 1.05958,8.8 2.82651,23.5 3.92651,32.66667 3.94307,32.8589 6.06569,50.41663 9.34919,77.33334 1.83386,15.03333 4.5186,37.23333 5.96605,49.33333 6.1948,51.78527 12.44377,103.39807 14.77104,122.00001 1.3762,11 2.08912,20.38645 1.58425,20.8588 -1.24426,1.16409 -34.54206,9.54329 -54.25126,13.652 -19.10076,3.98187 -29.06146,5.65445 -51.662916,8.67512 -15.272308,2.04113 -17.054467,2.06239 -17.570221,0.20948 z"></path>
  <text style="text-transform: uppercase; fill: #fff;" transform="rotate(-98)" x="-270" y="60" font-size="50" text-anchor="middle" alignment-baseline="middle">
    Click to view
	</text>
</svg>

<!-- Plot 17 -->
<svg class="js-plot-selector" data-property-id="264"  
	width="186.66667"
  height="538.66669"
  viewBox="0 0 186.66667 538.66669">
  <path x="0" y="0" width="186.66667" height="538.66669" fill="grey" d="m 64.581336,534.79313 c -0.38276,-2.31092 -2.78187,-21.30167 -5.33135,-42.20167 -2.54947,-20.9 -7.0674,-57.8 -10.03984,-82 -2.97244,-24.2 -6.87737,-56 -8.67762,-70.66667 C 32.026366,270.62501 20.945156,180.56697 18.630496,161.92478 4.6471763,49.304025 -0.50972374,5.8625769 0.03927626,5.3135769 0.79065626,4.5621929 118.50034,1.4414949 119.21291,2.1540669 c 0.44297,0.442965 5.73722,42.0468581 15.32611,120.4373831 2.24258,18.33333 5.84266,47.73333 8.00016,65.33333 8.74458,71.33426 12.17194,99.33269 17.30099,141.33334 2.95527,24.2 6.56179,53.6 8.01448,65.33334 1.45271,11.73333 5.37513,43.83333 8.71649,71.33333 3.34138,27.5 6.55312,53.44119 7.13724,57.6471 l 1.06202,7.64709 -4.11562,0.61071 c -4.82352,0.71575 -39.45018,2.82864 -78.1156,4.76657 -15.033334,0.75348 -29.567264,1.60139 -32.297614,1.88424 -4.67487,0.48431 -5.00486,0.26934 -5.66023,-3.68737 z"></path>
  <text style="text-transform: uppercase; fill: #fff;" transform="rotate(-98)" x="-270" y="60" font-size="50" text-anchor="middle" alignment-baseline="middle">
    Click to view
	</text>
</svg>

<!-- Plot 18 -->
<svg class="js-plot-selector" data-property-id="265"  
	width="200"
   height="540"
   viewBox="0 0 200 540">
  <path x="0" y="0" width="200" height="540" fill="grey" d="m 65.708889,536.14175 c -0.43488,-2.12204 -1.42049,-9.25825 -2.19022,-15.85825 -0.76974,-6.6 -4.66179,-38.4 -8.64901,-70.66667 -3.98721,-32.26667 -10.58382,-85.66667 -14.65912,-118.66667 -4.0753,-33 -10.37481,-84 -13.99891,-113.33333 -3.62409,-29.33333 -9.94112,-80.63333 -14.03783,-114 C 8.077089,70.25016 3.607999,34.250164 2.242489,23.616831 0.87697895,12.983498 -0.12633105,4.169431 0.01290895,4.030016 0.37117895,3.671294 107.16844,0.951 120.91133,0.950543 l 11.37445,-3.79e-4 2.27208,18.333334 c 1.24965,10.083333 4.09869,33.333332 6.3312,51.666662 2.2325,18.33334 6.42457,52.53334 9.31569,76 2.89112,23.46667 7.68756,62.46667 10.65876,86.66667 5.90873,48.12585 10.33757,84.12349 19.35692,157.33333 3.25245,26.4 8.31939,67.8 11.25987,92 2.94049,24.2 5.63444,45.6165 5.98657,47.5922 0.59768,3.35347 0.26683,3.63954 -4.97821,4.30435 -3.09015,0.39168 -25.11844,1.33484 -48.95178,2.09591 -23.83333,0.76106 -50.916721,1.76032 -60.185311,2.22057 L 66.499589,540 Z"></path>
  <text style="text-transform: uppercase; fill: #fff;" transform="rotate(-98)" x="-270" y="60" font-size="50" text-anchor="middle" alignment-baseline="middle">
    Click to view
	</text>
</svg>

<!-- Plot 19 -->
<svg class="js-plot-selector" data-property-id="269"  
	width="193.33333"
	height="541.33331"
	viewBox="0 0 193.33333 541.33331">
  <path x="0" y="0" width="193.33333" height="541.33331" fill="grey" d="m 67.092046,537.47912 c -0.59938,-2.9387 -20.45937,-151.21292 -35.56411,-265.52084 -0.70255,-5.31666 -1.85835,-14.01666 -2.56844,-19.33333 -2.38843,-17.883 -3.92774,-29.55656 -6.72498,-51 -1.53058,-11.73333 -7.44222,-56.04472 -13.1369696,-98.46974 -6.80128,-50.668427 -9.86678003,-77.271003 -8.93388003,-77.528687 0.78113,-0.21576 22.72023963,-2.92208 48.75356963,-6.014044 26.033331,-3.091964 52.712224,-6.321127 59.286434,-7.175917 l 11.9531,-1.554163 0.89234,-4.363041 c 0.49078,-2.399673 1.26189,-4.732593 1.71356,-5.184269 2.30387,-2.30386501 1.97726,-4.522539 15.35252,104.289871 2.97467,24.19999 9.3004,75.49999 14.05719,113.99999 4.75677,38.5 10.78817,87.4 13.40309,108.66666 19.66088,159.89834 23.43784,190.41694 24.58131,198.62186 0.71197,5.10871 1.17433,9.40151 1.02747,9.53959 -0.38992,0.36658 -62.35705,2.97054 -95.119884,3.99709 l -28.18621,0.88316 z"></path>
  <text style="text-transform: uppercase; fill: #fff;" transform="rotate(-98)" x="-270" y="60" font-size="50" text-anchor="middle" alignment-baseline="middle">
    Click to view
	</text>
</svg>

<!-- Plot 20 -->
<svg class="js-plot-selector" data-property-id="268"  
	width="192"
   height="516"
   viewBox="0 0 192 516">
  <path x="0" y="0" width="192" height="516" fill="grey" d="m 155.11833,514.82102 c -52.31644,-2.71536 -88.080613,-9.23731 -109.315653,-19.93476 -13.21159,-6.65553 -12.87187,-6.01604 -15.93171,-29.99037 -7.15596,-56.06826 -18.6456,-150.94694 -19.9408399,-164.66667 -4.27726,-45.30679 -6.98703,-72.87699 -8.4526,-86 -0.90088998,-8.06667 -1.56183998,-15.26667 -1.46878998,-16 0.0931,-0.73333 6.48885998,-35.83333 14.21292988,-78 7.72406,-42.166669 15.10147,-82.853695 16.39424,-90.415617 1.29278,-7.561923 3.05362,-14.710523 3.91299,-15.885779 1.21391,-1.66011 10.60328,-3.26267 42.08683,-7.1832908 22.288379,-2.775556 41.533903,-5.076956 42.767813,-5.114222 3.01795,-0.09115 3.08214,0.203139 7.69204,35.2655758 4.35799,33.146514 6.18183,46.794364 8.19628,61.333334 1.24937,9.017159 30.74108,230.400349 33.21509,249.333329 0.67079,5.13334 2.47174,18.93334 4.0021,30.66667 1.53036,11.73333 6.27038,47.13333 10.5334,78.66667 4.263,31.53333 7.498,57.78333 7.1889,58.33333 -0.63044,1.12177 -7.05533,1.04703 -35.09302,-0.4082 z"></path>
  <text style="text-transform: uppercase; fill: #fff;" transform="rotate(-95)" x="-270" y="70" font-size="50" text-anchor="middle" alignment-baseline="middle">
    Click to view
	</text>
</svg>

<!-- Plot 21 -->
<svg class="js-plot-selector" data-property-id="262"  
	width="266.66666"
	height="557.33331"
	viewBox="0 0 266.66666 557.33331">
  <path x="0" y="0" width="266.66666" height="557.33331" fill="grey" d="m 66.660121,553.21287 c -0.09442,-2.51156 -1.705076,-17.04872 -3.579236,-32.30479 -1.874162,-15.25606 -4.593644,-37.4883 -6.043296,-49.40497 -1.449651,-11.91667 -3.821808,-31.41667 -5.271459,-43.33333 -2.574641,-21.16449 -7.478017,-61.60248 -11.35771,-93.66666 -1.06478,-8.8 -3.767535,-31 -6.006121,-49.33334 C 32.163713,266.83645 29.463787,244.63645 28.402463,235.83645 21.491776,178.5363 12.392426,103.77139 7.0633173,60.503123 c -1.85158,-15.03333 -3.96225,-32.73333 -4.69039,-39.33333 -0.72814,-6.6 -1.66718002,-13.6500002 -2.08675002,-15.6666602 -0.63674,-3.06044 -0.30866,-3.66667 1.98434002,-3.66667 2.64784,0 3.32285,1.32083 4.42911,8.6666702 0.38917,2.58418 1.74152,2.69194 43.7185787,3.48372 23.824342,0.44938 65.293514,0.89938 92.153734,1 37.26932,0.13961 49.16012,0.57771 50.20202,1.84961 0.75091,0.91667 1.9965,6.76667 2.76796,13 2.28708,18.47904 5.35949,41.78485 8.87659,67.33333 11.89944,86.438467 59.05493,440.022097 58.72804,440.357417 -0.39886,0.40914 -16.04388,2.18151 -37.41136,4.23822 -8.06667,0.77645 -27.26667,2.62222 -42.66667,4.10172 -15.4,1.47948 -37.15,3.57782 -48.33333,4.66297 -11.18333,1.08515 -29.78333,2.88644 -41.333331,4.00289 -11.55,1.11646 -22.253265,2.30362 -23.785033,2.63812 -2.378303,0.51939 -2.810105,-0.0587 -2.956705,-3.95826 z" ></path>
  <text style="text-transform: uppercase; fill: #fff;" transform="rotate(-98)" x="-290" y="90" font-size="50" text-anchor="middle" alignment-baseline="middle">
    Click to view
	</text>
</svg>

<!-- Plot 22 -->
<svg class="js-plot-selector" data-property-id="263"  
	width="493.33334"
	   height="670.66669"
	   viewBox="0 0 493.33334 670.66669">
	<path x="0" y="0" width="493.33334" height="670.66669" fill="grey" 
    d="M 7.63756,604.19502 C 6.50409,521.87928 4.62231,357.98074 2.88653,190.39 2.16117,120.35667 1.21496,50.066727 0.78385,34.190142 L 0,5.323618 13.74251,4.510809 c 7.55838,-0.447045 41.34251,-1.402932 75.07585,-2.124194 33.73333,-0.721261 68.68691,-1.68793499 77.6746,-2.14816499 18.4934,-0.946984 49.79333,2.47663099 53.12788,5.81117399 1.02531,1.025301 1.86419,3.390927 1.86419,5.256947 0,1.86602 2.72753,25.673166 6.06117,52.904766 3.33364,27.2316 7.84496,64.211993 10.02513,82.178663 2.18018,17.96667 5.13496,42.26667 6.56619,54 1.43121,11.73334 3.50576,28.83334 4.61009,38 6.38288,52.98187 11.44772,94.71527 16.66702,137.33334 3.64825,29.78976 7.19864,58.95322 14.85244,122.00001 6.48056,53.38253 7.46145,60.68793 8.25504,61.48152 0.85809,0.85809 13.23721,-0.118 60.96292,-4.80677 15.03333,-1.47695 45.93333,-4.48019 68.66667,-6.67387 22.73333,-2.19368 46.29081,-4.47208 52.34996,-5.06311 6.05914,-0.59102 11.65425,-0.68053 12.43357,-0.19888 1.60963,0.9948 10.66665,65.46194 9.38391,66.79387 -0.45876,0.47635 -107.33411,14.1549 -237.50078,30.39679 -130.16667,16.24188 -238.82641,29.86439 -241.46608,30.27224 l -4.79942,0.74155 z"/>
  <text style="text-transform: uppercase; fill: #fff;" transform="rotate(-94)" x="-330" y="110" font-size="50" text-anchor="middle" alignment-baseline="middle">
  	Click to view
  </text>
</svg>

<!-- Plot 23 -->
<svg class="js-plot-selector" data-property-id="457"  
	width="522.66669"
	height="138.66667"
	viewBox="0 0 522.66669 138.66667">
	<path x="0" y="0" width="522.66669" height="138.66667" fill="grey" 
    d="m 318.66085,137.61238 c -93.90696,-0.36343 -90.67398,-0.12894 -90.71906,-6.57845 -0.0107,-1.60672 -0.47477,-3.20212 -1.03009,-3.54533 -0.55533,-0.34321 -8.80533,-1.96844 -18.33333,-3.61163 -17.27604,-2.97941 -17.4959,-2.98318 -79.99033,-1.37302 -34.466667,0.88802 -77.498977,1.96715 -95.627355,2.39807 L 0,125.6855 0.6225179,119.1537 C 0.9649027,115.56122 1.891456,90.729982 2.6815253,63.973172 3.698841,29.520332 4.575664,15.033352 5.6863589,14.326922 c 0.8625892,-0.54863 10.5683441,-1.00647 21.5683451,-1.01742 11,-0.011 41.600001,-0.61611 68.000003,-1.34481 49.123443,-1.35592 164.664623,-4.2842402 263.333343,-6.6740202 30.43334,-0.7371 79.50313,-2.01933 109.04398,-2.84939 29.54086,-0.83006 53.88692,-1.27899 54.10236,-0.99762 0.21546,0.28137 -0.51977,31.2716602 -1.63385,68.8673002 l -2.02557,68.355708 -55.41013,-0.35571 c -30.47556,-0.19565 -95.27736,-0.51001 -144.00399,-0.69858 z"/>
  <text style="text-transform: uppercase; fill: #fff;" x="260" y="72" font-size="50" text-anchor="middle" alignment-baseline="middle">
    Click to view
	</text>
</svg>

<!-- Plot 24 -->
<svg class="js-plot-selector" data-property-id="461"  
	width="522.66669"
	height="125.33333"
	viewBox="0 0 522.66669 125.33333">
	<path  x="0" y="0" width="522.66669" height="125.33333" fill="grey" 
    d="m 0.12774244,125.1123 c -0.086058,-0.36667 -0.1420904,-0.96667 -0.1245175,-1.33334 0.017573,-0.36666 0.8010592,-28.168872 1.74108076,-61.782682 L 3.4534356,0.88026831 33.536918,1.6528583 c 16.545915,0.42493 62.783484,1.0832 102.750152,1.46283 146.47674,1.39133 322.81948,3.33111 353.26514,3.88593 l 31.2651,0.56976 -0.35796,19.1037897 c -0.77529,41.37664 -2.63674,84.099782 -3.70945,85.137902 -0.62121,0.60118 -28.42948,1.75081 -61.79615,2.55474 -33.36667,0.80393 -84.36667,2.04788 -113.33334,2.76433 -28.96667,0.71645 -77.26667,1.90172 -107.33334,2.63394 -75.86268,1.8475 -163.238389,4.06755 -201.668097,5.12399 -17.784119,0.48889 -32.40517296,0.58889 -32.49123056,0.22223 z" />
  <text style="text-transform: uppercase; fill: #fff;" x="260" y="72" font-size="50" text-anchor="middle" alignment-baseline="middle">
    Click to view
	</text>
</svg>

<!-- Plot 25 -->
<svg class="js-plot-selector" data-property-id="462"  
	width="522.66669"
  height="128"
  viewBox="0 0 522.66669 128">
	<path x="0" y="0" width="522.66669" height="128" fill="grey"
    d="m 440.17889,126.57833 c -36.3,-0.53207 -129.6,-1.61725 -207.33334,-2.41151 -77.73334,-0.79426 -161.92359,-1.83546 -187.089448,-2.31378 L 0,120.98336 0.90328,98.15835 C 1.400084,85.60459 2.19033,60.03334 2.659381,41.33334 l 0.852821,-34 9.333334,-0.90571 C 17.978869,5.9295 99.878878,4.8531 194.84555,4.03564 289.81222,3.21818 402.18438,2.18152 444.56147,1.73195 l 77.04924,-0.8174 -0.66504,5.2094 C 520.57991,8.98911 519.94555,31.43334 519.536,56 c -0.40954,24.56667 -1.12081,50.81667 -1.58058,58.33333 L 517.11948,128 l -5.47029,-0.22713 c -3.00867,-0.12493 -35.1703,-0.66247 -71.4703,-1.19454 z" />
  <text style="text-transform: uppercase; fill: #fff;" x="260" y="72" font-size="50" text-anchor="middle" alignment-baseline="middle">
    Click to view
	</text>
</svg>

<!-- Plot 26 -->
<svg class="js-plot-selector" data-property-id="463"  
	width="520"
	height="121.33333"
	viewBox="0 0 520 121.33333">
	<path x="0" y="0" width="520" height="121.33333" fill="grey" 
    d="M 0.83299512,109.45595 C 1.2911424,102.92339 2.0616593,78.275298 2.5452549,54.682415 3.0288505,31.089525 3.8328916,11.125495 4.3320128,10.317905 4.9659407,9.2921852 33.144503,8.4612152 97.808217,7.5613252 c 50.912793,-0.70852 133.068713,-1.88181 182.568713,-2.6073 49.5,-0.7255 115.5,-1.63988 146.66667,-2.03196 31.16666,-0.39208 64.9671,-1.04951 75.11209,-1.46095 L 520.60112,0.71304525 519.784,48.479135 c -0.44942,26.271353 -1.14666,52.069295 -1.54944,57.328745 l -0.73232,9.56266 -9.56266,0.73502 c -5.25945,0.40427 -85.76265,1.37606 -178.89598,2.15953 -93.13334,0.78348 -205.26814,1.79435 -249.18847,2.24637 L 0,121.33333 Z"
     />
  <text style="text-transform: uppercase; fill: #fff;" x="260" y="68" font-size="50" text-anchor="middle" alignment-baseline="middle">
    Click to view
	</text>
</svg>

<!-- Plot 27 -->
<svg class="js-plot-selector" data-property-id="464"  
	width="520"
	height="166.66667"
	viewBox="0 0 520 166.66667">
	   <path x="0" y="0" width="520" height="166.66667" fill="grey" 
     d="m 0.48390104,166.21018 c -0.518258,-0.53055 -0.639585,-7.6406 -0.269616,-15.80012 0.369968,-8.15952 1.18818596,-37.24968 1.81826096,-64.644806 0.630075,-27.39512 1.655132,-50.31885 2.277903,-50.94162 1.101927,-1.10192 70.949914,-2.43691 273.115731,-5.22 54.26667,-0.74706 107.14975,-1.71824 117.51795,-2.15819 l 18.85126,-0.7999 0.93983,-12.53549 0.93983,-12.5354901 31.54222,0.16755 c 17.34824,0.0922 40.2059,0.54215 50.79482,1 l 19.25257,0.83245 1.20189,4.65366 c 1.55276,6.0122601 -1.34201,148.1813161 -3.05201,149.8913161 -0.68633,0.68633 -15.51448,1.45337 -32.95145,1.70453 -104.95799,1.51184 -318.82032,4.46468 -367.03691,5.06776 -31.166657,0.38983 -69.56666,1.06298 -85.333326,1.49588 -15.766667,0.4329 -29.090695,0.35302 -29.60895296,-0.17753 z"/>
  <text style="text-transform: uppercase; fill: #fff;" x="260" y="100" font-size="50" text-anchor="middle" alignment-baseline="middle">
    Click to view
	</text>
</svg>